# xmcd
#
# Track frame offsets:
#	183
#	10935
#	23088
#	35890
#	45425
#	56020
#	69593
#	80685
#	90445
#	102788
#	114353
#
# Disc length: 1631 seconds
#
# Revision: 1
# Processed by: cddbd v1.4PL0 Copyright (c) Steve Scherf et al.
# Submitted via: MusicWizard 6.0.2
#
DISCID=83065d0b
DTITLE=Various Artist - The Country Collection Vol. 1
DYEAR=1900
DGENRE=Country
TTITLE0=Billie Jo Spears - I'm So Lonesome I Coud Cry
TTITLE1=Willie Nelson - I Can't Find The Time
TTITLE2=Johnny Paycheck - Talk About Me
TTITLE3=Ned Miller - From A Jack To A King
TTITLE4=Dolly Parton - Honky Tonk Angels
TTITLE5=Kenny Rogers - Shine On Ruby Mountain
TTITLE6=Faron Young - Country Girl
TTITLE7=Patsy Cline - Turn The Cards Slowly
TTITLE8=Kenny Rogers - Me And Bobby McGhee
TTITLE9=Roger Miller - Little Green Apples
TTITLE10=Roger Miller - Dear Heart
EXTD=
EXTT0=
EXTT1=
EXTT2=
EXTT3=
EXTT4=
EXTT5=
EXTT6=
EXTT7=
EXTT8=
EXTT9=
EXTT10=
PLAYORDER=
